<svg width="50" height="51" viewBox="0 0 50 51" fill="none" xmlns="http://www.w3.org/2000/svg">
<g clip-path="url(#clip0_416_264)">
<path d="M35.8704 3.2541C32.5837 1.66484 28.8964 0.773438 25.0009 0.773438C21.1054 0.773438 17.4181 1.66484 14.1314 3.2541L11.9575 25.7734L14.1314 48.2928C17.4181 49.882 21.1054 50.7734 25.0009 50.7734C28.8964 50.7734 32.5837 49.882 35.8704 48.2928L38.0444 25.7734L35.8704 3.2541Z" fill="#D80027"/>
<path d="M25.0007 17.0778L27.1589 23.7203H34.1441L28.4933 27.8262L30.6516 34.469L25.0007 30.3635L19.3498 34.469L21.5085 27.8262L15.8577 23.7203H22.8424L25.0007 17.0778Z" fill="#FFDA44"/>
<path d="M14.1314 3.255C5.76908 7.29856 0.000915527 15.8619 0.000915527 25.7735C0.000915527 35.685 5.76908 44.2484 14.1314 48.2919V3.255Z" fill="#496E2D"/>
<path d="M35.8704 3.255V48.2919C44.2327 44.2484 50.0009 35.6849 50.0009 25.7735C50.0009 15.862 44.2327 7.29856 35.8704 3.255Z" fill="#FFDA44"/>
</g>
<defs>
<clipPath id="clip0_416_264">
<rect width="50" height="50" fill="white" transform="translate(0.000915527 0.773438)"/>
</clipPath>
</defs>
</svg>
