<svg width="51" height="51" viewBox="0 0 51 51" fill="none" xmlns="http://www.w3.org/2000/svg">
<g clip-path="url(#clip0_416_116)">
<path d="M0.00268555 25.5916C0.00268555 36.3406 6.78706 45.5042 16.3069 49.0365L18.4809 25.5915L16.3069 2.14661C6.78706 5.67903 0.00268555 14.8425 0.00268555 25.5916Z" fill="#6DA544"/>
<path d="M50.0027 25.5916C50.0027 11.7846 38.8097 0.591614 25.0027 0.591614C21.9447 0.591614 19.0153 1.14171 16.3069 2.14659V49.0366C19.0153 50.0416 21.9447 50.5916 25.0027 50.5916C38.8097 50.5916 50.0027 39.3986 50.0027 25.5916Z" fill="#D80027"/>
<path d="M16.3071 34.2872C21.1095 34.2872 25.0027 30.3941 25.0027 25.5916C25.0027 20.7892 21.1095 16.896 16.3071 16.896C11.5046 16.896 7.61145 20.7892 7.61145 25.5916C7.61145 30.3941 11.5046 34.2872 16.3071 34.2872Z" fill="#FFDA44"/>
<path d="M11.4158 21.2438V26.6785C11.4158 29.3799 13.6056 31.5699 16.3071 31.5699C19.0085 31.5699 21.1984 29.38 21.1984 26.6785V21.2438H11.4158Z" fill="#D80027"/>
<path d="M16.3071 28.309C15.4081 28.309 14.6766 27.5776 14.6766 26.6785V24.5047H17.9375V26.6786C17.9375 27.5776 17.206 28.309 16.3071 28.309Z" fill="#F0F0F0"/>
</g>
<defs>
<clipPath id="clip0_416_116">
<rect width="50" height="50" fill="white" transform="translate(0.00268555 0.591614)"/>
</clipPath>
</defs>
</svg>
