<svg width="51" height="51" viewBox="0 0 51 51" fill="none" xmlns="http://www.w3.org/2000/svg">
<g clip-path="url(#clip0_416_123)">
<path d="M25.0027 50.5916C38.8098 50.5916 50.0027 39.3987 50.0027 25.5916C50.0027 11.7845 38.8098 0.591614 25.0027 0.591614C11.1956 0.591614 0.00268555 11.7845 0.00268555 25.5916C0.00268555 39.3987 11.1956 50.5916 25.0027 50.5916Z" fill="#F0F0F0"/>
<path d="M25.0027 19.0698H49.1415C48.5146 16.7442 47.5619 14.5527 46.3334 12.548H25.0027V19.0698Z" fill="#338AF3"/>
<path d="M9.44045 45.1568H40.5648C42.8463 43.3397 44.803 41.1324 46.3332 38.6351H3.672C5.20237 41.1323 7.15901 43.3397 9.44045 45.1568V45.1568Z" fill="#338AF3"/>
<path d="M25.0027 0.591614V6.02638H40.5649C36.2944 2.62521 30.8864 0.591614 25.0027 0.591614V0.591614Z" fill="#338AF3"/>
<path d="M25.0027 19.0698H49.1415C48.5146 16.7442 47.5619 14.5527 46.3334 12.548H25.0027V19.0698Z" fill="#338AF3"/>
<path d="M0.00268555 25.5916C0.00268555 27.8482 0.303467 30.0339 0.863916 32.1134H49.1416C49.7019 30.0339 50.0027 27.8482 50.0027 25.5916H0.00268555Z" fill="#338AF3"/>
<path d="M21.7418 15.2226L18.6885 16.6588L20.3144 19.6158L16.999 18.9817L16.5788 22.3308L14.2697 19.8675L11.9603 22.3308L11.5403 18.9817L8.22483 19.6156L9.85061 16.6587L6.79749 15.2226L9.85071 13.7865L8.22483 10.8295L11.5402 11.4637L11.9604 8.11456L14.2697 10.5778L16.5789 8.11456L16.999 11.4637L20.3145 10.8295L18.6886 13.7866L21.7418 15.2226Z" fill="#FFDA44"/>
</g>
<defs>
<clipPath id="clip0_416_123">
<rect width="50" height="50" fill="white" transform="translate(0.00268555 0.591614)"/>
</clipPath>
</defs>
</svg>
